<svg width="35" height="36" viewBox="0 0 35 36" fill="none" xmlns="http://www.w3.org/2000/svg">
<path d="M28.9722 16.523H31.8403C31.8403 9.16642 26.2863 3.61816 18.9197 3.61816V6.48622C24.7447 6.48622 28.9722 10.7066 28.9722 16.523Z" fill="#F3F6F6"/>
<path d="M18.9339 12.2223C21.9497 12.2223 23.236 13.5086 23.236 16.5244H26.1041C26.1041 11.8996 23.5587 9.35422 18.9339 9.35422V12.2223ZM23.8412 20.0277C23.5656 19.7772 23.2035 19.6437 22.8314 19.6552C22.4592 19.6667 22.106 19.8224 21.8465 20.0894L18.4148 23.6185C17.5888 23.4608 15.9282 22.9431 14.2189 21.238C12.5095 19.5272 11.9918 17.8623 11.8384 17.042L15.3646 13.609C15.632 13.3496 15.7879 12.9964 15.7994 12.6241C15.8109 12.2518 15.6771 11.8896 15.4263 11.6142L10.1276 5.78779C9.87669 5.51153 9.52798 5.34397 9.15553 5.32067C8.78307 5.29737 8.41621 5.42019 8.13285 5.66303L5.02101 8.33176C4.77308 8.58058 4.6251 8.91175 4.60514 9.26244C4.58363 9.62095 4.1735 18.1133 10.7586 24.7012C16.5033 30.4445 23.6992 30.8646 25.681 30.8646C25.9707 30.8646 26.1485 30.856 26.1959 30.8532C26.5465 30.8335 26.8775 30.6849 27.1251 30.4359L29.7924 27.3226C30.0354 27.0394 30.1585 26.6726 30.1355 26.3002C30.1124 25.9277 29.9451 25.5789 29.6691 25.3279L23.8412 20.0277Z" fill="#F3F6F6"/>
</svg>
