<svg width="38" height="38" viewBox="0 0 38 38" fill="none" xmlns="http://www.w3.org/2000/svg">
<path d="M31.4445 6.55566H6.55557C5.73045 6.55566 4.93913 6.88344 4.35568 7.46689C3.77223 8.05033 3.44446 8.84166 3.44446 9.66677V28.3334C3.44446 29.1586 3.77223 29.9499 4.35568 30.5333C4.93913 31.1168 5.73045 31.4445 6.55557 31.4445H31.4445C32.2696 31.4445 33.0609 31.1168 33.6443 30.5333C34.2278 29.9499 34.5556 29.1586 34.5556 28.3334V9.66677C34.5556 8.84166 34.2278 8.05033 33.6443 7.46689C33.0609 6.88344 32.2696 6.55566 31.4445 6.55566ZM31.4445 13.8668L19 22.1641L6.55557 13.8668V10.1288L19 18.4246L31.4445 10.1288V13.8668Z" fill="#F3F6F6"/>
</svg>
